# xmcd CD database file
# Generated: Wed Dec 4 11:31:26 2002 by KSCD
# 
# Track frame offsets:
#       150
#       13222
#       32382
#       52722
#       67822
#       89202
#       102387
#       119992
#       143502
#       154952
#
# Disc length: 2322 seconds
#
# Revision: 2
# Processed by: cddbd v1.4PL0 Copyright (c) Steve Scherf et al.
# Submitted via: Kscd 1.3.3
#
DISCID=8409100a
DTITLE=Compilation - Fetzer Summertime Blues
DYEAR=1900
DGENRE=
TTITLE0=Mr. Pitiful - Taj Mahal
TTITLE1=The Blues Is Alright - Little Milton
TTITLE2=Cash Talkin' (The Working Man's Blues) - Albert Collins
TTITLE3=Never Trust A Man -KoKo Taylor
TTITLE4=Too Much Of Everything - The Fabulous Thunderbirds
TTITLE5=That's All Right - Arthur "Big Boy" Crudup
TTITLE6=Fannie Mae - The James Cotton Band
TTITLE7=Down Home Blues - Z.Z. Hill
TTITLE8=Catwalk - Charlie Musselwhite
TTITLE9=Done In The Dark - Etta James
EXTD=
EXTT0=
EXTT1=
EXTT2=
EXTT3=
EXTT4=
EXTT5=
EXTT6=
EXTT7=
EXTT8=
EXTT9=
PLAYORDER=
